<svg width="50" height="50" viewBox="0 0 50 50" fill="none" xmlns="http://www.w3.org/2000/svg">
<g id="Frame 334944">
<g id="Education / brain">
<path id="Vector" d="M39.0835 24.0417C39.0876 23.0138 38.82 22.003 38.3078 21.1118C37.7956 20.2206 37.0571 19.4806 36.1669 18.9667C36.1888 18.7144 36.1888 18.4606 36.1669 18.2083C36.1669 17.048 35.7059 15.9352 34.8855 15.1147C34.065 14.2943 32.9522 13.8333 31.7919 13.8333H31.5294C31.2865 13.16 30.8822 12.5566 30.3518 12.076C29.8215 11.5953 29.1813 11.2521 28.4874 11.0765C27.7935 10.9009 27.0672 10.8982 26.372 11.0686C25.6769 11.2391 25.0341 11.5775 24.5002 12.0542C23.9663 11.5775 23.3236 11.2391 22.6284 11.0686C21.9332 10.8982 21.2069 10.9009 20.513 11.0765C19.8191 11.2521 19.1789 11.5953 18.6486 12.076C18.1182 12.5566 17.7139 13.16 17.471 13.8333H17.2085C16.0482 13.8333 14.9354 14.2943 14.1149 15.1147C13.2945 15.9352 12.8335 17.048 12.8335 18.2083C12.8116 18.4606 12.8116 18.7144 12.8335 18.9667C12.0059 19.4345 11.3051 20.0975 10.7922 20.898C10.2793 21.6986 9.96989 22.6123 9.89082 23.5597C9.81174 24.5072 9.96544 25.4596 10.3385 26.334C10.7116 27.2085 11.2928 27.9785 12.0315 28.5771C11.5535 29.4685 11.3156 30.4689 11.341 31.48C11.3664 32.4912 11.6543 33.4784 12.1764 34.3446C12.6986 35.2109 13.437 35.9266 14.3192 36.4213C15.2014 36.9161 16.1971 37.1729 17.2085 37.1667H17.471C17.7139 37.84 18.1182 38.4434 18.6486 38.924C19.1789 39.4047 19.8191 39.7479 20.513 39.9235C21.2069 40.0991 21.9332 40.1018 22.6284 39.9314C23.3236 39.7609 23.9663 39.4225 24.5002 38.9458C25.0341 39.4225 25.6769 39.7609 26.372 39.9314C27.0672 40.1018 27.7935 40.0991 28.4874 39.9235C29.1813 39.7479 29.8215 39.4047 30.3518 38.924C30.8822 38.4434 31.2865 37.84 31.5294 37.1667H31.7919C32.7971 37.1603 33.7837 36.8943 34.6559 36.3943C35.5281 35.8944 36.2562 35.1776 36.7698 34.3134C37.2833 33.4491 37.5648 32.4669 37.5869 31.4618C37.609 30.4568 37.3711 29.4631 36.896 28.5771C37.5763 28.0325 38.1258 27.3424 38.5044 26.5576C38.8829 25.7727 39.0808 24.913 39.0835 24.0417ZM23.0419 20.4687C22.7242 20.2871 22.3926 20.131 22.0502 20.0021C21.6828 19.8783 21.2812 19.9056 20.9339 20.0779C20.5865 20.2502 20.3219 20.5534 20.1981 20.9208C20.0744 21.2883 20.1016 21.6898 20.2739 22.0371C20.4462 22.3845 20.7494 22.6491 21.1169 22.7729C21.6782 22.9759 22.1638 23.3462 22.5081 23.8338C22.8523 24.3215 23.0386 24.9031 23.0419 25.5V27.7604C22.7242 27.5787 22.3926 27.4227 22.0502 27.2937C21.6828 27.17 21.2812 27.1972 20.9339 27.3695C20.5865 27.5418 20.3219 27.8451 20.1981 28.2125C20.0744 28.5799 20.1016 28.9815 20.2739 29.3288C20.4462 29.6761 20.7494 29.9408 21.1169 30.0646C21.6782 30.2675 22.1638 30.6378 22.5081 31.1255C22.8523 31.6132 23.0386 32.1947 23.0419 32.7917V35.7083C23.0419 36.0951 22.8882 36.466 22.6147 36.7395C22.3412 37.013 21.9703 37.1667 21.5835 37.1667C21.3014 37.1648 21.0258 37.0812 20.7903 36.9259C20.5547 36.7706 20.3693 36.5503 20.2565 36.2917C20.501 36.1482 20.7349 35.9873 20.9565 35.8104C21.1039 35.6878 21.2258 35.5374 21.3151 35.3678C21.4045 35.1981 21.4595 35.0125 21.4771 34.8216C21.4947 34.6306 21.4745 34.4381 21.4177 34.2549C21.3609 34.0718 21.2686 33.9016 21.146 33.7542C21.0235 33.6067 20.8731 33.4848 20.7034 33.3955C20.5337 33.3062 20.3481 33.2511 20.1572 33.2335C19.9662 33.2159 19.7737 33.2361 19.5906 33.2929C19.4074 33.3497 19.2372 33.442 19.0898 33.5646C18.5632 34.0079 17.8968 34.2507 17.2085 34.25C16.435 34.25 15.6931 33.9427 15.1461 33.3957C14.5992 32.8487 14.2919 32.1069 14.2919 31.3333C14.2988 30.7844 14.4606 30.2486 14.7585 29.7875C15.0858 29.8462 15.4177 29.8755 15.7502 29.875C16.137 29.875 16.5079 29.7213 16.7814 29.4479C17.0549 29.1744 17.2085 28.8034 17.2085 28.4167C17.2085 28.0299 17.0549 27.659 16.7814 27.3855C16.5079 27.112 16.137 26.9583 15.7502 26.9583C15.4057 26.9603 15.0641 26.8959 14.744 26.7687C14.2195 26.5796 13.7602 26.244 13.4205 25.8019C13.0808 25.3597 12.875 24.8295 12.8275 24.2739C12.7799 23.7184 12.8925 23.1609 13.1521 22.6674C13.4116 22.1739 13.8072 21.7652 14.2919 21.4896C14.4991 21.6802 14.7237 21.8511 14.9627 22C15.2992 22.1934 15.6987 22.2452 16.0734 22.144C16.4481 22.0428 16.7672 21.7969 16.9606 21.4604C17.154 21.1239 17.2058 20.7244 17.1046 20.3497C17.0034 19.975 16.7575 19.6559 16.421 19.4625C16.2157 19.3492 16.0445 19.1831 15.9252 18.9812C15.7904 18.7471 15.7294 18.4777 15.7502 18.2083C15.7502 17.8216 15.9038 17.4506 16.1773 17.1771C16.4508 16.9036 16.8218 16.75 17.2085 16.75C17.3101 16.7358 17.4132 16.7358 17.5148 16.75C17.592 16.9843 17.6845 17.2133 17.7919 17.4354C17.8871 17.6025 18.0145 17.7491 18.1667 17.8668C18.3189 17.9845 18.4928 18.0709 18.6785 18.121C18.8642 18.1712 19.058 18.1841 19.2487 18.159C19.4395 18.134 19.6233 18.0714 19.7898 17.975C20.1131 17.7805 20.3484 17.4682 20.4463 17.1038C20.5442 16.7394 20.4971 16.3512 20.3148 16.0208C20.1924 15.7971 20.1273 15.5466 20.1252 15.2917C20.1252 14.9049 20.2788 14.534 20.5523 14.2605C20.8258 13.987 21.1968 13.8333 21.5835 13.8333C21.9703 13.8333 22.3412 13.987 22.6147 14.2605C22.8882 14.534 23.0419 14.9049 23.0419 15.2917V20.4687ZM34.2565 26.7687C33.9363 26.8959 33.5947 26.9603 33.2502 26.9583C32.8634 26.9583 32.4925 27.112 32.219 27.3855C31.9455 27.659 31.7919 28.0299 31.7919 28.4167C31.7919 28.8034 31.9455 29.1744 32.219 29.4479C32.4925 29.7213 32.8634 29.875 33.2502 29.875C33.5827 29.8755 33.9146 29.8462 34.2419 29.7875C34.5398 30.2486 34.7016 30.7844 34.7085 31.3333C34.7085 32.1069 34.4012 32.8487 33.8543 33.3957C33.3073 33.9427 32.5654 34.25 31.7919 34.25C31.1036 34.2507 30.4372 34.0079 29.9106 33.5646C29.6128 33.317 29.2289 33.198 28.8432 33.2335C28.4576 33.2691 28.1019 33.4563 27.8544 33.7542C27.6068 34.052 27.4877 34.4359 27.5233 34.8216C27.5588 35.2072 27.7461 35.5629 28.044 35.8104C28.2655 35.9873 28.4994 36.1482 28.744 36.2917C28.6311 36.5503 28.4457 36.7706 28.2101 36.9259C27.9746 37.0812 27.699 37.1648 27.4169 37.1667C27.0301 37.1667 26.6592 37.013 26.3857 36.7395C26.1122 36.466 25.9585 36.0951 25.9585 35.7083V32.7917C25.9618 32.1947 26.1481 31.6132 26.4923 31.1255C26.8366 30.6378 27.3222 30.2675 27.8835 30.0646C28.251 29.9408 28.5542 29.6761 28.7265 29.3288C28.8988 28.9815 28.9261 28.5799 28.8023 28.2125C28.6785 27.8451 28.4139 27.5418 28.0665 27.3695C27.7192 27.1972 27.3176 27.17 26.9502 27.2937C26.6078 27.4227 26.2762 27.5787 25.9585 27.7604V25.5C25.9618 24.9031 26.1481 24.3215 26.4923 23.8338C26.8366 23.3462 27.3222 22.9759 27.8835 22.7729C28.251 22.6491 28.5542 22.3845 28.7265 22.0371C28.8988 21.6898 28.9261 21.2883 28.8023 20.9208C28.6785 20.5534 28.4139 20.2502 28.0665 20.0779C27.7192 19.9056 27.3176 19.8783 26.9502 20.0021C26.6078 20.131 26.2762 20.2871 25.9585 20.4687V15.2917C25.9585 14.9049 26.1122 14.534 26.3857 14.2605C26.6592 13.987 27.0301 13.8333 27.4169 13.8333C27.8036 13.8333 28.1746 13.987 28.4481 14.2605C28.7216 14.534 28.8752 14.9049 28.8752 15.2917C28.8731 15.5466 28.808 15.7971 28.6856 16.0208C28.5886 16.1864 28.5252 16.3695 28.4991 16.5596C28.473 16.7497 28.4846 16.9432 28.5334 17.1288C28.5822 17.3144 28.6671 17.4885 28.7833 17.6413C28.8995 17.794 29.0447 17.9223 29.2106 18.0187C29.3771 18.1152 29.5609 18.1777 29.7517 18.2028C29.9424 18.2278 30.1362 18.2149 30.3219 18.1648C30.5076 18.1146 30.6815 18.0282 30.8337 17.9105C30.9859 17.7929 31.1133 17.6463 31.2085 17.4792C31.3177 17.2428 31.4103 16.9992 31.4856 16.75C31.5872 16.7358 31.6903 16.7358 31.7919 16.75C32.1786 16.75 32.5496 16.9036 32.8231 17.1771C33.0966 17.4506 33.2502 17.8216 33.2502 18.2083C33.248 18.4942 33.1618 18.7731 33.0023 19.0104C32.883 19.1997 32.7174 19.3553 32.521 19.4625C32.1845 19.6559 31.9387 19.975 31.8375 20.3497C31.7363 20.7244 31.7881 21.1239 31.9815 21.4604C32.1748 21.7969 32.494 22.0428 32.8687 22.144C33.2433 22.2452 33.6429 22.1934 33.9794 22C34.2412 21.8584 34.4859 21.6871 34.7085 21.4896C35.1949 21.7603 35.5936 22.1645 35.8576 22.6545C36.1217 23.1446 36.24 23.6999 36.1986 24.255C36.1572 24.8101 35.9578 25.3417 35.624 25.7871C35.2902 26.2326 34.8359 26.5732 34.3148 26.7687H34.2565Z" fill="#F58021"/>
</g>
<rect x="0.5" y="0.5" width="49" height="49" rx="24.5" stroke="#ED7232"/>
</g>
</svg>
