<svg width="50" height="50" viewBox="0 0 50 50" fill="none" xmlns="http://www.w3.org/2000/svg">
<g id="Frame 334944">
<g id="Users / approve user">
<path id="Vector" d="M26.3957 25.8208C27.1738 25.1473 27.7979 24.3142 28.2257 23.3781C28.6535 22.4421 28.8749 21.425 28.8748 20.3958C28.8748 18.462 28.1066 16.6073 26.7392 15.2398C25.3717 13.8724 23.517 13.1042 21.5832 13.1042C19.6493 13.1042 17.7946 13.8724 16.4272 15.2398C15.0597 16.6073 14.2915 18.462 14.2915 20.3958C14.2915 21.425 14.5129 22.4421 14.9406 23.3781C15.3684 24.3142 15.9925 25.1473 16.7707 25.8208C14.7292 26.7452 12.9972 28.2381 11.7817 30.1208C10.5662 32.0035 9.91865 34.1965 9.9165 36.4375C9.9165 36.8243 10.0701 37.1952 10.3436 37.4687C10.6171 37.7422 10.9881 37.8958 11.3748 37.8958C11.7616 37.8958 12.1325 37.7422 12.406 37.4687C12.6795 37.1952 12.8332 36.8243 12.8332 36.4375C12.8332 34.1168 13.755 31.8912 15.396 30.2503C17.0369 28.6094 19.2625 27.6875 21.5832 27.6875C23.9038 27.6875 26.1294 28.6094 27.7704 30.2503C29.4113 31.8912 30.3332 34.1168 30.3332 36.4375C30.3332 36.8243 30.4868 37.1952 30.7603 37.4687C31.0338 37.7422 31.4047 37.8958 31.7915 37.8958C32.1783 37.8958 32.5492 37.7422 32.8227 37.4687C33.0962 37.1952 33.2498 36.8243 33.2498 36.4375C33.2477 34.1965 32.6002 32.0035 31.3847 30.1208C30.1692 28.2381 28.4371 26.7452 26.3957 25.8208ZM21.5832 24.7708C20.7179 24.7708 19.872 24.5142 19.1526 24.0335C18.4331 23.5528 17.8723 22.8695 17.5412 22.0701C17.2101 21.2706 17.1234 20.391 17.2922 19.5423C17.461 18.6936 17.8777 17.9141 18.4896 17.3022C19.1014 16.6904 19.881 16.2737 20.7297 16.1049C21.5783 15.9361 22.458 16.0227 23.2574 16.3539C24.0568 16.685 24.7401 17.2457 25.2209 17.9652C25.7016 18.6847 25.9582 19.5305 25.9582 20.3958C25.9582 21.5561 25.4972 22.6689 24.6768 23.4894C23.8563 24.3099 22.7435 24.7708 21.5832 24.7708ZM38.6603 21.3146C38.5247 21.1779 38.3634 21.0694 38.1857 20.9954C38.008 20.9213 37.8174 20.8832 37.6248 20.8832C37.4323 20.8832 37.2417 20.9213 37.064 20.9954C36.8863 21.0694 36.725 21.1779 36.5894 21.3146L33.6728 24.2312L32.7686 23.3125C32.633 23.1758 32.4717 23.0673 32.294 22.9933C32.1163 22.9192 31.9257 22.8811 31.7332 22.8811C31.5407 22.8811 31.35 22.9192 31.1723 22.9933C30.9946 23.0673 30.8333 23.1758 30.6978 23.3125C30.4261 23.5857 30.2737 23.9553 30.2737 24.3406C30.2737 24.7259 30.4261 25.0955 30.6978 25.3687L32.6519 27.3229C32.9252 27.5945 33.2948 27.747 33.68 27.747C34.0653 27.747 34.4349 27.5945 34.7082 27.3229L38.6019 23.4292C38.7492 23.2969 38.8679 23.1361 38.951 22.9565C39.0341 22.7769 39.0798 22.5822 39.0852 22.3844C39.0907 22.1866 39.0558 21.9897 38.9828 21.8058C38.9097 21.6219 38.8 21.4547 38.6603 21.3146Z" fill="#F58021"/>
</g>
<rect x="0.5" y="0.5" width="49" height="49" rx="24.5" stroke="#ED7232"/>
</g>
</svg>
