<svg width="50" height="50" viewBox="0 0 50 50" fill="none" xmlns="http://www.w3.org/2000/svg">
<g id="Frame 334944">
<g id="Business / money">
<path id="Vector" d="M37.5 31.25H12.5C12.1685 31.25 11.8505 31.3817 11.6161 31.6161C11.3817 31.8505 11.25 32.1685 11.25 32.5C11.25 32.8315 11.3817 33.1495 11.6161 33.3839C11.8505 33.6183 12.1685 33.75 12.5 33.75H37.5C37.8315 33.75 38.1495 33.6183 38.3839 33.3839C38.6183 33.1495 38.75 32.8315 38.75 32.5C38.75 32.1685 38.6183 31.8505 38.3839 31.6161C38.1495 31.3817 37.8315 31.25 37.5 31.25ZM37.5 36.25H12.5C12.1685 36.25 11.8505 36.3817 11.6161 36.6161C11.3817 36.8505 11.25 37.1685 11.25 37.5C11.25 37.8315 11.3817 38.1495 11.6161 38.3839C11.8505 38.6183 12.1685 38.75 12.5 38.75H37.5C37.8315 38.75 38.1495 38.6183 38.3839 38.3839C38.6183 38.1495 38.75 37.8315 38.75 37.5C38.75 37.1685 38.6183 36.8505 38.3839 36.6161C38.1495 36.3817 37.8315 36.25 37.5 36.25ZM17.5 18.75C17.2528 18.75 17.0111 18.8233 16.8055 18.9607C16.6 19.098 16.4398 19.2932 16.3452 19.5216C16.2505 19.7501 16.2258 20.0014 16.274 20.2439C16.3222 20.4863 16.4413 20.7091 16.6161 20.8839C16.7909 21.0587 17.0137 21.1778 17.2561 21.226C17.4986 21.2742 17.7499 21.2495 17.9784 21.1549C18.2068 21.0602 18.402 20.9 18.5393 20.6945C18.6767 20.4889 18.75 20.2472 18.75 20C18.75 19.6685 18.6183 19.3505 18.3839 19.1161C18.1495 18.8817 17.8315 18.75 17.5 18.75ZM35 11.25H15C14.0054 11.25 13.0516 11.6451 12.3483 12.3483C11.6451 13.0516 11.25 14.0054 11.25 15V25C11.25 25.9946 11.6451 26.9484 12.3483 27.6517C13.0516 28.3549 14.0054 28.75 15 28.75H35C35.9946 28.75 36.9484 28.3549 37.6517 27.6517C38.3549 26.9484 38.75 25.9946 38.75 25V15C38.75 14.0054 38.3549 13.0516 37.6517 12.3483C36.9484 11.6451 35.9946 11.25 35 11.25ZM36.25 25C36.25 25.3315 36.1183 25.6495 35.8839 25.8839C35.6495 26.1183 35.3315 26.25 35 26.25H15C14.6685 26.25 14.3505 26.1183 14.1161 25.8839C13.8817 25.6495 13.75 25.3315 13.75 25V15C13.75 14.6685 13.8817 14.3505 14.1161 14.1161C14.3505 13.8817 14.6685 13.75 15 13.75H35C35.3315 13.75 35.6495 13.8817 35.8839 14.1161C36.1183 14.3505 36.25 14.6685 36.25 15V25ZM25 16.25C24.2583 16.25 23.5333 16.4699 22.9166 16.882C22.2999 17.294 21.8193 17.8797 21.5355 18.5649C21.2516 19.2502 21.1774 20.0042 21.3221 20.7316C21.4667 21.459 21.8239 22.1272 22.3483 22.6517C22.8728 23.1761 23.541 23.5333 24.2684 23.6779C24.9958 23.8226 25.7498 23.7484 26.4351 23.4645C27.1203 23.1807 27.706 22.7001 28.118 22.0834C28.5301 21.4667 28.75 20.7417 28.75 20C28.75 19.0054 28.3549 18.0516 27.6517 17.3483C26.9484 16.6451 25.9946 16.25 25 16.25ZM25 21.25C24.7528 21.25 24.5111 21.1767 24.3055 21.0393C24.1 20.902 23.9398 20.7068 23.8451 20.4784C23.7505 20.2499 23.7258 19.9986 23.774 19.7561C23.8222 19.5137 23.9413 19.2909 24.1161 19.1161C24.2909 18.9413 24.5137 18.8222 24.7561 18.774C24.9986 18.7258 25.2499 18.7505 25.4784 18.8452C25.7068 18.9398 25.902 19.1 26.0393 19.3055C26.1767 19.5111 26.25 19.7528 26.25 20C26.25 20.3315 26.1183 20.6495 25.8839 20.8839C25.6495 21.1183 25.3315 21.25 25 21.25ZM32.5 18.75C32.2528 18.75 32.0111 18.8233 31.8055 18.9607C31.6 19.098 31.4398 19.2932 31.3451 19.5216C31.2505 19.7501 31.2258 20.0014 31.274 20.2439C31.3223 20.4863 31.4413 20.7091 31.6161 20.8839C31.7909 21.0587 32.0137 21.1778 32.2561 21.226C32.4986 21.2742 32.7499 21.2495 32.9784 21.1549C33.2068 21.0602 33.402 20.9 33.5393 20.6945C33.6767 20.4889 33.75 20.2472 33.75 20C33.75 19.6685 33.6183 19.3505 33.3839 19.1161C33.1495 18.8817 32.8315 18.75 32.5 18.75Z" fill="#F58021"/>
</g>
<rect x="0.5" y="0.5" width="49" height="49" rx="24.5" stroke="#ED7232"/>
</g>
</svg>
